<?xml version="1.0" encoding="utf-8"?>
<!-- Generator: Adobe Illustrator 16.0.0, SVG Export Plug-In . SVG Version: 6.00 Build 0)  -->
<!DOCTYPE svg PUBLIC "-//W3C//DTD SVG 1.1//EN" "http://www.w3.org/Graphics/SVG/1.1/DTD/svg11.dtd">
<svg version="1.1" id="Layer_1" xmlns="http://www.w3.org/2000/svg" xmlns:xlink="http://www.w3.org/1999/xlink" x="0px" y="0px"
	 width="1280px" height="204.848px" viewBox="0 0 1280 204.848" enable-background="new 0 0 1280 204.848" xml:space="preserve">
<g>
	<g>
		<path fill="#BFE5EE" d="M1280.426,47.784C1112.24,63.19,1032.499,56.006,933.951,35.67
			c-98.546-20.336-157.471-8.522-271.783,17.976C547.853,80.145,390.869,35.211,272.612,35.211
			C154.356,35.211,83.626,62.108,0,62.108v56.739h1279.934L1280.426,47.784z"/>
		<path fill="#9DD9E5" d="M1280.259,87.701c-30.282-10.928-77.438-24.293-134.141-23.511
			c-59.403,0.818-73.705,16.008-143.389,19.479c-73.13,3.643-82.683-12.027-159.392-10.471
			c-88.251,1.791-92.497,22.763-166.055,22.63c-90.789-0.163-103.545-32.207-192.816-32.474
			c-82.415-0.246-91.177,26.983-172.727,25.715c-80.802-1.257-102.534-28.484-181.309-28.787C73.362,60.063,29.014,74.123,0,84.774
			v56.073h1280.426L1280.259,87.701z"/>
		<path fill="#82CEE0" d="M1280.168,114.362c-62.336-16.978-114.914-22.373-158.48-19.535
			c-62.14,4.049-72.341,22.741-131.414,24.315c-67.997,1.813-90.549-21.931-157.261-20.146
			c-66.593,1.78-75.673,26.284-137.697,27.271c-68.724,1.091-88.284-28.499-161.386-29.045
			c-75.971-0.567-102.517,31.035-175.198,29.047c-54.271-1.485-107.439-24.666-165.094-31.012
			C148.841,90.327,121.173,97.78,0,129.232v48.615h1280.168V114.362z"/>
		<path fill="#64C2D2" d="M1280.426,176.739c-43.7-23.646-108.393-50.29-181.653-47.729c-75.948,2.655-91.866,34.566-173.663,38.801
			c-101.204,5.24-131.647-40.59-230.807-35.893c-95.134,4.508-114.359,37.169-191.334,33.354
			C424.993,161.405,412.1,126,341.23,125.504c-67.935-0.479-87.735,32.115-163.301,37.328C134.604,165.82,76.8,166.691,0,123.979
			v81.868h1280.015L1280.426,176.739z"/>
	</g>
</g>
</svg>
