<?xml version="1.0" encoding="iso-8859-1"?>
<!-- Generator: Adobe Illustrator 16.0.0, SVG Export Plug-In . SVG Version: 6.00 Build 0)  -->
<!DOCTYPE svg PUBLIC "-//W3C//DTD SVG 1.1//EN" "http://www.w3.org/Graphics/SVG/1.1/DTD/svg11.dtd">
<svg version="1.1" id="Capa_1" xmlns="http://www.w3.org/2000/svg" xmlns:xlink="http://www.w3.org/1999/xlink" x="0px" y="0px"
	 width="28.64px" height="28.641px" viewBox="0 0 28.64 28.641" style="enable-background:new 0 0 28.64 28.641;"
	 xml:space="preserve">
<g>
	<path d="M25.346,13.051v-1.509l-0.217-0.086c-0.069-0.026-1.655-0.641-3.821-0.71c-0.408-0.723-1.166-2.048-1.949-3.203
		c-0.293-0.429-0.587-0.83-0.854-1.193c-0.426-0.581-0.956-1.302-0.96-1.517c0.032-0.941,0.009-3.169,0.002-3.857h0.556V0h-7.031
		v0.976h0.737c-0.008,0.688-0.03,2.916,0.003,3.856c-0.006,0.216-0.536,0.937-0.962,1.518c-0.266,0.363-0.561,0.764-0.853,1.193
		c-0.783,1.152-1.54,2.478-1.948,3.2c-0.038,0-0.075-0.003-0.113-0.003c-2.364,0-4.137,0.688-4.211,0.718l-0.217,0.084v1.397
		c-0.717,0.135-1.163,0.375-1.163,0.767c0,2.037,0,14.397,0,14.397H12.95c0.367,0.33,0.903,0.537,1.502,0.537
		c0.601,0,1.138-0.207,1.504-0.537h10.339c0,0,0-13.686,0-14.397C26.295,13.386,25.934,13.179,25.346,13.051z M10.666,7.998
		c0.286-0.421,0.574-0.814,0.835-1.171c0.744-1.016,1.133-1.564,1.118-2.021c-0.03-0.838-0.014-2.786-0.005-3.629h4.125
		c0.01,0.843,0.026,2.791-0.002,3.629c-0.017,0.457,0.371,1.006,1.116,2.021c0.261,0.356,0.55,0.75,0.837,1.171
		c0.646,0.95,1.273,2.021,1.696,2.762c-0.112,0.005-0.228,0.005-0.338,0.014c-0.251-0.437-0.603-1.028-0.963-1.56
		c-0.132-0.193-0.261-0.371-0.386-0.543h-8.045c-0.124,0.172-0.254,0.35-0.385,0.543c-0.375,0.551-0.74,1.171-0.992,1.611
		c-0.108-0.014-0.215-0.029-0.325-0.039C9.375,10.044,10.011,8.959,10.666,7.998z M14.312,26.97c-0.88-0.362-3.913-1.517-6.95-1.517
		c-1.2,0-2.263,0.184-3.169,0.547V12.019c0.529-0.176,1.969-0.593,3.742-0.593c2.333,0,4.337,0.706,5.973,2.081v8.345l0.404-0.444
		V26.97z M24.66,26.004c-0.974-0.39-2.088-0.588-3.326-0.588c-3.036,0-5.926,1.163-6.793,1.546v-5.556l0.404,0.445v-8.346
		c1.637-1.375,3.642-2.081,5.973-2.081c1.768,0,3.213,0.417,3.742,0.593V26.004z"/>
</g>
<g>
</g>
<g>
</g>
<g>
</g>
<g>
</g>
<g>
</g>
<g>
</g>
<g>
</g>
<g>
</g>
<g>
</g>
<g>
</g>
<g>
</g>
<g>
</g>
<g>
</g>
<g>
</g>
<g>
</g>
</svg>
