<?xml version="1.0" encoding="utf-8"?>
<!-- Generator: Adobe Illustrator 25.2.3, SVG Export Plug-In . SVG Version: 6.00 Build 0)  -->
<svg version="1.1" id="Layer_1" xmlns="http://www.w3.org/2000/svg" xmlns:xlink="http://www.w3.org/1999/xlink" x="0px" y="0px"
	 viewBox="0 0 511 511" style="enable-background:new 0 0 511 511;" xml:space="preserve">
<style type="text/css">
	.st0{fill:#13489E;}
</style>
<path class="st0" d="M422.1,273.5c0-8.4-6.8-15.2-15.2-15.2s-15.2,6.8-15.2,15.2c0,74.5-60.6,135.2-135.2,135.2
	c-74.5,0-135.2-60.6-135.2-135.2c0-8.4-6.8-15.2-15.2-15.2s-15.2,6.8-15.2,15.2c0,86.2,66.2,157.2,150.4,165v41h-56.6
	c-8.4,0-15.2,6.8-15.2,15.2s6.8,15.2,15.2,15.2h143.6c8.4,0,15.2-6.8,15.2-15.2s-6.8-15.2-15.2-15.2h-56.6v-41
	C355.9,430.8,422.1,359.8,422.1,273.5z"/>
<path class="st0" d="M256.5,371.1c53.8,0,97.6-43.8,97.6-97.6v-177c0-53.8-43.8-97.6-97.6-97.6c-53.8,0-97.6,43.8-97.6,97.6v177
	C158.9,327.4,202.7,371.1,256.5,371.1z M189.4,96.6c0-37,30.1-67.1,67.1-67.1s67.1,30.1,67.1,67.1v177c0,37-30.1,67.1-67.1,67.1
	s-67.1-30.1-67.1-67.1V96.6z"/>
</svg>
