<?xml version="1.0" encoding="utf-8"?>
<!-- Generator: Adobe Illustrator 21.0.2, SVG Export Plug-In . SVG Version: 6.00 Build 0)  -->
<svg version="1.1" id="Capa_1" xmlns="http://www.w3.org/2000/svg" xmlns:xlink="http://www.w3.org/1999/xlink" x="0px" y="0px"
	 viewBox="0 0 512 512" style="enable-background:new 0 0 512 512;" xml:space="preserve">
<style type="text/css">
	.st0{fill:#14499E;}
	.st1{fill:#F7941D;}
</style>
<g id="XMLID_1548_">
	<g id="XMLID_1332_">
		<path id="XMLID_1333_" class="st0" d="M216,250.9c2.6,0,5.2-1.1,7.1-2.9c1.9-1.9,2.9-4.4,2.9-7.1c0-2.6-1.1-5.2-2.9-7.1
			c-1.9-1.9-4.4-2.9-7.1-2.9s-5.2,1.1-7.1,2.9c-1.9,1.9-2.9,4.4-2.9,7.1c0,2.6,1.1,5.2,2.9,7.1C210.8,249.8,213.4,250.9,216,250.9z"
			/>
		<path id="XMLID_1358_" class="st0" d="M296,250.9c2.6,0,5.2-1.1,7.1-2.9c1.9-1.9,2.9-4.4,2.9-7.1c0-2.6-1.1-5.2-2.9-7.1
			c-1.9-1.9-4.4-2.9-7.1-2.9s-5.2,1.1-7.1,2.9c-1.9,1.9-2.9,4.4-2.9,7.1c0,2.6,1.1,5.2,2.9,7.1C290.8,249.8,293.4,250.9,296,250.9z"
			/>
		<path id="XMLID_1364_" class="st0" d="M417.6,335.5c-5.5-9.4-15.2-15.1-26.1-15.1c-10.5,0-20.5,5.8-25.9,15.2
			c-2,3.4-5.6,5.4-9.5,5.3c-5.6-0.2-10.1-5.1-10.1-11v-79.6l14.8-24.3c34.2-51.8,41.3-102.4,20.5-146.4c-2.4-5-8.3-7.1-13.3-4.8
			c-5,2.4-7.1,8.3-4.8,13.3c17.7,37.4,11,81.3-19.2,127c-0.1,0.1-0.1,0.2-0.2,0.3l-2.6,4.2c-8-17-25.3-28.8-45.3-28.8
			c-16.3,0-30.9,7.9-40,20c-9.1-12.2-23.7-20-40-20c-20,0-37.3,11.8-45.3,28.8l-2.6-4.2c-0.1-0.1-0.1-0.2-0.2-0.3
			c-28.1-43-50-105.8,5-160.8c34.5-34.5,87.6-44.1,132-23.7c5,2.3,11,0.1,13.3-4.9s0.1-11-4.9-13.3C288.1,0.9,260.2-2.7,232.7,2
			c-28.1,4.8-53.7,18-73.9,38.3c-50.3,50.3-53,116.3-7.7,185.7l14.8,24.3V330c0,5.9-4.5,10.8-10.1,11c-3.9,0.1-7.5-1.9-9.5-5.3
			c-5.4-9.4-15.4-15.2-25.9-15.2c-10.9,0-20.6,5.6-26.1,15.1c-5.4,9.3-5.5,20.5-0.1,29.8c12.6,22.1,36,35.6,61.3,35.6
			c0.4,0,0.7,0,1.1,0c19.3-0.3,36.8-8.6,49.4-21.8V441c0,5.9-4.5,10.8-10.1,11c-3.9,0.2-7.5-1.9-9.5-5.3
			c-5.4-9.4-15.4-15.2-25.9-15.2c-10.9,0-20.6,5.6-26.1,15.1c-5.4,9.3-5.5,20.5-0.1,29.8c12.6,22.1,36,35.6,61.3,35.6
			c0.4,0,0.7,0,1.1,0c25.2-0.4,47.2-14.4,59.4-34.9c12.2,20.6,34.2,34.5,59.4,34.9c0.4,0,0.7,0,1.1,0c25.3,0,48.7-13.6,61.3-35.6
			c5.3-9.3,5.3-20.5-0.1-29.8c-5.5-9.4-15.2-15.1-26.1-15.1c-10.5,0-20.5,5.8-25.9,15.2c-2,3.4-5.6,5.4-9.5,5.3
			c-5.6-0.2-10.1-5.1-10.1-11v-61.8c12.6,13.1,30.1,21.5,49.4,21.8c0.4,0,0.7,0,1.1,0c25.3,0,48.7-13.6,61.3-35.6
			C423.1,356,423,344.9,417.6,335.5L417.6,335.5z M296,210.9c16.5,0,30,13.5,30,30s-13.5,30-30,30s-30-13.5-30-30
			S279.5,210.9,296,210.9z M216,210.9c16.5,0,30,13.5,30,30s-13.5,30-30,30s-30-13.5-30-30S199.5,210.9,216,210.9z M400.4,355.4
			c-9,15.8-25.8,25.6-43.9,25.6c-0.3,0-0.5,0-0.8,0c-27.4-0.4-49.7-23.5-49.7-51.4v-8.7c0-5.5-4.5-10-10-10s-10,4.5-10,10V441
			c0,16.8,12.9,30.4,29.3,31c11.3,0.4,21.9-5.4,27.6-15.2c1.9-3.3,5.1-5.2,8.6-5.2c3.7,0,7,1.9,8.8,5.1c0.9,1.5,2.6,5.4,0.1,9.8
			c-9.2,16-26.3,25.8-44.7,25.6c-27.4-0.4-49.7-23.5-49.7-51.4V320.9c0-5.5-4.5-10-10-10s-10,4.5-10,10v119.7
			c0,27.9-22.3,51-49.7,51.4c-18.4,0.3-35.5-9.5-44.7-25.6c-2.5-4.4-0.8-8.4,0.1-9.8c1.9-3.2,5.2-5.1,8.8-5.1c3.5,0,6.7,2,8.6,5.2
			c5.7,9.8,16.2,15.6,27.6,15.2c16.4-0.6,29.3-14.2,29.3-31v-120c0-5.5-4.5-10-10-10s-10,4.5-10,10v8.7c0,27.9-22.3,51-49.7,51.4
			c-18.4,0.3-35.5-9.5-44.7-25.6c-2.5-4.4-0.8-8.4,0.1-9.8c1.9-3.2,5.2-5.1,8.8-5.1c3.5,0,6.7,2,8.6,5.2
			c5.7,9.8,16.2,15.7,27.6,15.2c16.4-0.6,29.3-14.2,29.3-31v-49.1c8.4,6.3,18.8,10,30,10c16.3,0,30.9-7.9,40-20
			c9.1,12.2,23.7,20,40,20c11.2,0,21.6-3.7,30-10V330c0,16.7,12.9,30.4,29.3,31c11.3,0.4,21.9-5.4,27.6-15.2
			c1.9-3.3,5.1-5.2,8.6-5.2c3.7,0,7,1.9,8.8,5.1C401.2,347.1,402.9,351,400.4,355.4L400.4,355.4z"/>
		<path id="XMLID_1367_" class="st1" d="M346.1,57.3c2.6,0,5.2-1.1,7.1-2.9c1.9-1.9,2.9-4.4,2.9-7.1c0-2.6-1.1-5.2-2.9-7.1
			c-1.9-1.9-4.4-2.9-7.1-2.9c-2.6,0-5.2,1.1-7.1,2.9c-1.9,1.9-2.9,4.4-2.9,7.1c0,2.6,1.1,5.2,2.9,7.1
			C340.9,56.3,343.4,57.3,346.1,57.3z"/>
	</g>
</g>
</svg>
