<?xml version="1.0" encoding="utf-8"?>
<!-- Generator: Adobe Illustrator 25.2.3, SVG Export Plug-In . SVG Version: 6.00 Build 0)  -->
<svg version="1.1" id="Layer_1" xmlns="http://www.w3.org/2000/svg" xmlns:xlink="http://www.w3.org/1999/xlink" x="0px" y="0px"
	 viewBox="0 0 1280 147.9" style="enable-background:new 0 0 1280 147.9;" xml:space="preserve">
<style type="text/css">
	.st0{fill:#9DD9E5;}
	.st1{fill:#82CEE0;}
</style>
<path class="st0" d="M1280,27.5c-18.8,0-77.4-24.4-134.1-23.6c-59.4,0.8-73.7,16-143.4,19.5c-73.1,3.6-82.7-12-159.4-10.5
	c-88.2,1.8-92.5,22.8-166,22.6C586.3,35.4,573.6,3.3,484.3,3.1c-82.4-0.2-91.2,27-172.7,25.7C230.9,27.5,209.1,0.3,130.4,0
	C73.3-0.2,35,27.5,0,27.5v53.1h1280V27.5z"/>
<path class="st1" d="M1280,74.9c-19.7,0-114.8-37.3-158.4-34.4c-62.1,4-72.3,22.7-131.4,24.3c-68,1.8-90.5-21.9-157.3-20.1
	c-66.5,1.7-75.6,26.2-137.6,27.2c-68.7,1.1-88.3-28.5-161.4-29c-76-0.6-102.5,31-175.2,29c-54.3-1.5-107.4-24.7-165.1-31
	C148.8,36,13.5,74.9,0,74.9v98.6h1280"/>
</svg>
