<svg width="32" height="32" xmlns="http://www.w3.org/2000/svg" xml:space="preserve" version="1.1">

 <g>
  <title>Layer 1</title>
  <path id="svg_1" stroke-miterlimit="10" stroke-linejoin="round" stroke-linecap="round" stroke-width="2" stroke="#3880ff" fill="none" d="m11,13l-6,0c-1.1,0 -2,-0.9 -2,-2l0,-6c0,-1.1 0.9,-2 2,-2l6,0c1.1,0 2,0.9 2,2l0,6c0,1.1 -0.9,2 -2,2z" class="st0"/>
  <path id="svg_2" stroke-miterlimit="10" stroke-linejoin="round" stroke-linecap="round" stroke-width="2" stroke="#3880ff" fill="none" d="m11,29l-6,0c-1.1,0 -2,-0.9 -2,-2l0,-6c0,-1.1 0.9,-2 2,-2l6,0c1.1,0 2,0.9 2,2l0,6c0,1.1 -0.9,2 -2,2z" class="st0"/>
  <line id="svg_3" stroke-miterlimit="10" stroke-linejoin="round" stroke-linecap="round" stroke-width="2" stroke="#3880ff" fill="none" y2="5" x2="29" y1="5" x1="17" class="st0"/>
  <line id="svg_4" stroke-miterlimit="10" stroke-linejoin="round" stroke-linecap="round" stroke-width="2" stroke="#3880ff" fill="none" y2="8.88399" x2="24" y1="8.88399" x1="17" class="st0"/>
  <line id="svg_5" stroke-miterlimit="10" stroke-linejoin="round" stroke-linecap="round" stroke-width="2" stroke="#3880ff" fill="none" y2="21" x2="29" y1="21" x1="17" class="st0"/>
  <line id="svg_6" stroke-miterlimit="10" stroke-linejoin="round" stroke-linecap="round" stroke-width="2" stroke="#3880ff" fill="none" y2="25" x2="24" y1="25" x1="17" class="st0"/>
  <polyline id="svg_7" stroke-miterlimit="10" stroke-linejoin="round" stroke-linecap="round" stroke-width="2" stroke="#3880ff" fill="none" points="5.535962760448456,7.464037179946899 7.535962760448456,9.464036703109741 10.535962760448456,6.464037179946899 " class="st0"/>
 </g>
</svg>