<?xml version="1.0" encoding="iso-8859-1"?>
<!-- Generator: Adobe Illustrator 16.0.0, SVG Export Plug-In . SVG Version: 6.00 Build 0)  -->
<!DOCTYPE svg PUBLIC "-//W3C//DTD SVG 1.1//EN" "http://www.w3.org/Graphics/SVG/1.1/DTD/svg11.dtd">
<svg version="1.1" id="Capa_1" xmlns="http://www.w3.org/2000/svg" xmlns:xlink="http://www.w3.org/1999/xlink" x="0px" y="0px"
	 width="44.583px" height="44.583px" viewBox="0 0 44.583 44.583" style="enable-background:new 0 0 44.583 44.583;"
	 xml:space="preserve">
<g>
	<g>
		<g>
			<path d="M19.711,26.684h-4.265v4.328c0,1.869-1.53,3.394-3.4,3.394c-1.87,0-3.4-1.522-3.4-3.394v-4.328H4.36
				c-0.616,0-1.204,0.271-1.612,0.729c-0.409,0.461-0.603,1.077-0.532,1.688c0.822,7.084,4.905,15.359,9.821,15.359
				c4.915,0,8.998-8.271,9.819-15.357c0.071-0.609-0.123-1.229-0.532-1.688C20.914,26.955,20.328,26.684,19.711,26.684z"/>
			<path d="M6.705,3.905h3.872v27.104c0,0.804,0.667,1.454,1.47,1.454c0.803,0,1.47-0.65,1.47-1.454V3.905h3.85
				c1.07,0,1.939-0.882,1.939-1.952c0-1.07-0.869-1.953-1.939-1.953H6.705C5.634,0,4.766,0.883,4.766,1.953
				C4.766,3.023,5.634,3.905,6.705,3.905z"/>
			<g>
				<path d="M28.995,3.905h3.825v27.104c0,0.804,0.659,1.467,1.462,1.467c0.031,0,0.157,0,0.188,0c0.803,0,1.465-0.663,1.465-1.467
					V3.905h3.819c1.069,0,1.938-0.882,1.938-1.952c0-1.07-0.868-1.953-1.938-1.953H28.993c-1.068,0-1.938,0.883-1.938,1.953
					C27.057,3.023,27.927,3.905,28.995,3.905z"/>
				<path d="M37.865,27.391c0,0,0,2.716,0,3.621c0,2.151-1.609,3.396-3.411,3.396c-0.028,0-0.128,0-0.156,0
					c-1.802,0-3.406-1.244-3.406-3.396c0-0.905,0-3.621,0-3.621c-2.722,1.345-4.521,4.148-4.521,7.389v7.865
					c0,1.071,0.839,1.938,1.909,1.938s1.908-0.867,1.908-1.938v-4.856h2.324v4.856c0,1.041,0.834,1.938,1.865,1.938
					c1.029,0,1.863-0.896,1.863-1.938v-4.856h2.325v4.856c0,1.071,0.838,1.938,1.907,1.938c1.071,0,1.909-0.867,1.909-1.938v-7.865
					C42.386,31.539,40.543,28.732,37.865,27.391z"/>
			</g>
		</g>
	</g>
</g>
<g>
</g>
<g>
</g>
<g>
</g>
<g>
</g>
<g>
</g>
<g>
</g>
<g>
</g>
<g>
</g>
<g>
</g>
<g>
</g>
<g>
</g>
<g>
</g>
<g>
</g>
<g>
</g>
<g>
</g>
</svg>
