<?xml version="1.0" encoding="utf-8"?>
<!-- Generator: Adobe Illustrator 24.0.0, SVG Export Plug-In . SVG Version: 6.00 Build 0)  -->
<svg version="1.1" id="Layer_1" xmlns="http://www.w3.org/2000/svg" xmlns:xlink="http://www.w3.org/1999/xlink" x="0px" y="0px"
	 viewBox="0 0 7256.69 7256.69" style="enable-background:new 0 0 7256.69 7256.69;" xml:space="preserve">
<style type="text/css">
	.st0{stroke:#000000;stroke-width:40;stroke-miterlimit:10;}
	.st1{fill:#FFFFFF;stroke:#000000;stroke-width:200;stroke-miterlimit:10;}
</style>
<path class="st0" d="M3486.38,5957.79c-24.53,24.62-232.9,226.66-539.23,187.92c-347.28-43.92-497.66-356.48-506.55-375.83
	c-5.45,54.47-10.89,108.94-16.34,163.4c18.1,33.51,164.59,293.88,482.04,351.32c341.86,61.86,582.13-165.87,604.6-187.91
	C3502.72,6050.38,3494.55,6004.09,3486.38,5957.79z"/>
<path class="st0" d="M3935.24,5957.79c24.53,24.62,232.9,226.66,539.23,187.92c347.28-43.92,497.66-356.48,506.55-375.83
	c5.45,54.47,10.89,108.94,16.34,163.4c-18.1,33.51-164.59,293.88-482.04,351.32c-341.86,61.86-582.13-165.87-604.6-187.91
	C3918.9,6050.38,3927.07,6004.09,3935.24,5957.79z"/>
<polygon class="st0" points="4519.36,2787.56 4193.14,3369.46 4193.14,4224.68 4069.71,4268.76 3805.21,4594.98 3805.21,5044.63 
	4104.98,5159.24 4104.98,6190.79 3258.58,6190.79 3258.58,5194.51 3523.08,5044.63 3531.89,4612.61 3333.58,4261.06 
	3188.04,4224.68 3188.04,3360.64 2835.38,2787.56 "/>
<rect x="4718.24" y="2336.33" transform="matrix(-0.9881 0.1539 -0.1539 -0.9881 10223.1152 8366.626)" class="st0" width="138.89" height="4485.45"/>
<rect x="2552.17" y="2336.33" transform="matrix(0.9881 0.1539 -0.1539 0.9881 736.0336 -348.9461)" class="st0" width="138.89" height="4485.45"/>
<path class="st1" d="M4390.73,2896.4H2964.01c-156.52,0-283.41-126.89-283.41-283.41V647.05c0-156.52,126.89-283.41,283.41-283.41
	h1426.72c156.52,0,283.41,126.89,283.41,283.41V2613C4674.13,2769.52,4547.25,2896.4,4390.73,2896.4z"/>
</svg>
